<?xml version="1.0" encoding="UTF-8" standalone="no"?><!DOCTYPE svg PUBLIC "-//W3C//DTD SVG 1.1//EN" "http://www.w3.org/Graphics/SVG/1.1/DTD/svg11.dtd"><svg width="100%" height="100%" viewBox="0 0 211 28" version="1.1" xmlns="http://www.w3.org/2000/svg" xmlns:xlink="http://www.w3.org/1999/xlink" xml:space="preserve" xmlns:serif="http://www.serif.com/" style="fill-rule:evenodd;clip-rule:evenodd;stroke-linejoin:round;stroke-miterlimit:2;"><path d="M3.833,4.166l17.192,0l0,20.833l-17.708,-0c-1.725,-0 -3.124,-1.399 -3.124,-3.125l-0,-18.749c-0,-1.726 1.399,-3.125 3.124,-3.125l17.708,-0l0,2.083l-17.192,0c-1.432,0 -1.432,2.083 0,2.083Zm4.829,15.503l1.272,-1.427c0.013,-0.032 0.013,-0.065 -0,-0.097c-0.44,-0.388 -0.813,-0.728 -1.117,-1.02c-0.304,-0.29 -0.551,-0.556 -0.742,-0.795c-0.191,-0.24 -0.331,-0.46 -0.417,-0.661c-0.088,-0.2 -0.131,-0.398 -0.131,-0.592c-0,-0.239 0.047,-0.493 0.14,-0.762c0.094,-0.269 0.284,-0.591 0.568,-0.966c0.246,0.214 0.543,0.475 0.888,0.787c0.346,0.31 0.714,0.644 1.103,1c0.388,0.355 0.781,0.721 1.179,1.097c0.398,0.375 0.768,0.731 1.111,1.067c0.169,0.169 0.338,0.34 0.505,0.515c0.169,0.175 0.329,0.359 0.481,0.553c0.153,0.195 0.294,0.402 0.428,0.622c0.132,0.22 0.246,0.459 0.344,0.719c0.123,0.032 0.265,0.041 0.427,0.029c0.123,-0.318 0.243,-0.619 0.359,-0.903c0.116,-0.286 0.239,-0.576 0.369,-0.874c0.052,-0.123 0.078,-0.243 0.078,-0.36c-0,-0.149 -0.068,-0.316 -0.204,-0.505c-0.136,-0.187 -0.33,-0.398 -0.583,-0.63c-0.084,-0.078 -0.176,-0.166 -0.276,-0.263c-0.101,-0.096 -0.222,-0.213 -0.364,-0.349c-0.143,-0.136 -0.313,-0.296 -0.51,-0.481c-0.198,-0.184 -0.435,-0.403 -0.713,-0.655c0.53,-0.511 0.956,-0.955 1.276,-1.33c0.32,-0.375 0.568,-0.698 0.742,-0.966c0.175,-0.268 0.29,-0.493 0.345,-0.675c0.055,-0.181 0.083,-0.333 0.083,-0.456c0,-0.162 -0.075,-0.341 -0.224,-0.539c-0.148,-0.197 -0.41,-0.464 -0.786,-0.801c-0.168,-0.148 -0.304,-0.272 -0.407,-0.369c-0.104,-0.097 -0.185,-0.179 -0.243,-0.247c-0.058,-0.069 -0.098,-0.131 -0.117,-0.19c-0.019,-0.058 -0.029,-0.122 -0.029,-0.194c0,-0.039 0.001,-0.081 0.005,-0.126c0.004,-0.045 0.008,-0.1 0.015,-0.165c-0.066,-0.032 -0.14,-0.061 -0.224,-0.087c-0.084,-0.026 -0.152,-0.033 -0.204,-0.02c-0.466,0.427 -0.794,0.782 -0.985,1.063c-0.191,0.282 -0.287,0.5 -0.287,0.655c0,0.091 0.012,0.175 0.035,0.253c0.022,0.078 0.067,0.163 0.136,0.257c0.068,0.094 0.162,0.199 0.285,0.315c0.124,0.117 0.283,0.26 0.476,0.427c0.24,0.208 0.41,0.378 0.511,0.511c0.1,0.132 0.15,0.273 0.15,0.422c-0,0.097 -0.021,0.198 -0.064,0.301c-0.041,0.104 -0.109,0.22 -0.203,0.35c-0.094,0.129 -0.213,0.279 -0.359,0.451c-0.146,0.172 -0.322,0.367 -0.529,0.587c-0.292,-0.265 -0.596,-0.541 -0.913,-0.83c-0.318,-0.287 -0.634,-0.582 -0.952,-0.883c-0.317,-0.301 -0.629,-0.605 -0.936,-0.913c-0.308,-0.307 -0.597,-0.607 -0.869,-0.898c-0.149,-0.168 -0.269,-0.324 -0.359,-0.466c-0.091,-0.143 -0.163,-0.278 -0.214,-0.407c-0.052,-0.131 -0.087,-0.258 -0.107,-0.384c-0.019,-0.127 -0.029,-0.257 -0.029,-0.394l-0,-0.155c-0,-0.058 0.003,-0.113 0.01,-0.165c-0.072,-0.033 -0.152,-0.053 -0.243,-0.063c-0.09,-0.009 -0.172,-0.005 -0.242,0.015c-0.169,0.291 -0.336,0.577 -0.5,0.859c-0.166,0.281 -0.323,0.577 -0.472,0.889c-0.084,0.174 -0.126,0.355 -0.126,0.543c-0,0.155 0.034,0.302 0.102,0.442c0.068,0.138 0.162,0.282 0.281,0.431c0.12,0.149 0.259,0.304 0.418,0.467c0.159,0.161 0.329,0.339 0.51,0.533c-0.291,0.382 -0.54,0.727 -0.748,1.034c-0.207,0.308 -0.377,0.593 -0.509,0.855c-0.133,0.262 -0.23,0.505 -0.292,0.728c-0.061,0.224 -0.092,0.438 -0.092,0.645c-0,0.169 0.021,0.337 0.063,0.506c0.042,0.167 0.112,0.341 0.208,0.518c0.098,0.179 0.224,0.371 0.38,0.579c0.155,0.207 0.345,0.433 0.572,0.679c-0.291,0.181 -0.561,0.359 -0.81,0.534c-0.25,0.175 -0.475,0.34 -0.675,0.495c0.019,0.084 0.053,0.165 0.102,0.242c0.048,0.079 0.095,0.14 0.141,0.186c0.427,-0.149 0.778,-0.262 1.053,-0.336c0.275,-0.073 0.517,-0.111 0.723,-0.111c0.195,0 0.361,0.03 0.5,0.092c0.139,0.061 0.283,0.148 0.432,0.257Z" style="fill:#9b2cd9;"/><g transform="matrix(28.0153,0,0,28.0153,211.825,22.8684)"></g><text x="26.374px" y="22.868px" style="font-family:'Roboto-Bold', 'Roboto';font-weight:700;font-size:28.015px;fill:#fff;">ChassidusWiki</text></svg>